<svg width="38" height="38" viewBox="0 0 38 38" fill="none" xmlns="http://www.w3.org/2000/svg">
<rect width="38" height="38" fill="#FAAC32"/>
<path d="M23 8C19.99 8 17.2693 9.20992 15.2793 11.1699C14.6993 11.0599 14.11 11 13.5 11C8.26 11 4 15.26 4 20.5C4 25.74 8.26 30 13.5 30H18H23C29.07 30 34 25.07 34 19C34 12.93 29.07 8 23 8ZM23 10C27.96 10 32 14.04 32 19C32 23.96 27.96 28 23 28C21.56 28 20.2999 27.6291 19.1699 27.0391C17.6099 26.2291 16.2891 24.9804 15.0391 23.6504L13.9902 22.5098C13.4302 21.8998 12.8691 21.2809 12.2891 20.7109C11.8991 20.3209 11.8991 19.6791 12.2891 19.2891C12.6791 18.8991 13.3209 18.8991 13.7109 19.2891C14.3009 19.8891 14.8809 20.5202 15.4609 21.1602C17.7409 23.6502 19.89 26 23 26C26.86 26 30 22.86 30 19C30 15.14 26.86 12 23 12C21.63 12 20.3192 12.3909 19.1992 13.1309C18.6392 12.7009 18.0309 12.3007 17.3809 11.9707C18.9709 10.7007 20.94 10 23 10ZM13.5 13C14.67 13 15.7292 13.3409 16.6992 13.8809C17.2192 14.1609 17.7002 14.4894 18.1602 14.8594C19.1602 15.6394 20.0496 16.5602 20.8496 17.4102C21.1396 17.7102 21.4309 18.0091 21.7109 18.2891C22.1009 18.6791 22.1009 19.3209 21.7109 19.7109C21.3209 20.1009 20.6791 20.1009 20.2891 19.7109C19.9991 19.4209 19.7104 19.1091 19.4004 18.7891C17.7004 17.0091 15.78 15 13.5 15C10.47 15 8 17.47 8 20.5C8 23.53 10.47 26 13.5 26C13.82 26 14.1392 25.9702 14.4492 25.9102C14.9892 26.4502 15.5807 26.9902 16.2207 27.4902C15.3607 27.8302 14.44 28 13.5 28C9.36 28 6 24.64 6 20.5C6 16.36 9.36 13 13.5 13Z" fill="#060D19"/>
</svg>
