<svg width="352" height="352" viewBox="0 0 352 352" fill="none" xmlns="http://www.w3.org/2000/svg">
<mask id="mask0_48_21" style="mask-type:alpha" maskUnits="userSpaceOnUse" x="50" y="50" width="251" height="251">
<circle cx="175.831" cy="175.831" r="125" transform="rotate(-39.0697 175.831 175.831)" fill="#D9D9D9"/>
</mask>
<g mask="url(#mask0_48_21)">
<rect x="-9.31656" y="165.129" width="262" height="10" transform="rotate(-39.0697 -9.31656 165.129)" fill="#FAAC32"/>
<rect x="0.137451" y="176.775" width="262" height="10" transform="rotate(-39.0697 0.137451 176.775)" fill="#FAAC32"/>
<rect x="9.59143" y="188.421" width="262" height="10" transform="rotate(-39.0697 9.59143 188.421)" fill="#FAAC32"/>
<rect x="19.0454" y="200.067" width="262" height="10" transform="rotate(-39.0697 19.0454 200.067)" fill="#FAAC32"/>
<rect x="28.4994" y="211.712" width="262" height="10" transform="rotate(-39.0697 28.4994 211.712)" fill="#FAAC32"/>
<rect x="37.9534" y="223.358" width="262" height="10" transform="rotate(-39.0697 37.9534 223.358)" fill="#FAAC32"/>
<rect x="47.4074" y="235.004" width="262" height="10" transform="rotate(-39.0697 47.4074 235.004)" fill="#FAAC32"/>
<rect x="61.5197" y="242.868" width="262" height="10" transform="rotate(-39.0697 61.5197 242.868)" fill="#FAAC32"/>
<rect x="70.9736" y="254.514" width="262" height="10" transform="rotate(-39.0697 70.9736 254.514)" fill="#FAAC32"/>
<rect x="80.4276" y="266.159" width="262" height="10" transform="rotate(-39.0697 80.4276 266.159)" fill="#FAAC32"/>
<rect x="89.8816" y="277.805" width="262" height="10" transform="rotate(-39.0697 89.8816 277.805)" fill="#FAAC32"/>
<rect x="99.3356" y="289.451" width="262" height="10" transform="rotate(-39.0697 99.3356 289.451)" fill="#FAAC32"/>
<rect x="108.79" y="301.096" width="262" height="10" transform="rotate(-39.0697 108.79 301.096)" fill="#FAAC32"/>
<rect x="118.244" y="312.742" width="262" height="10" transform="rotate(-39.0697 118.244 312.742)" fill="#FAAC32"/>
<rect x="127.698" y="324.388" width="262" height="10" transform="rotate(-39.0697 127.698 324.388)" fill="#FAAC32"/>
<rect x="137.152" y="336.033" width="262" height="10" transform="rotate(-39.0697 137.152 336.033)" fill="#FAAC32"/>
<rect x="146.606" y="347.679" width="262" height="10" transform="rotate(-39.0697 146.606 347.679)" fill="#FAAC32"/>
</g>
</svg>
