<svg width="369" height="144" viewBox="0 0 369 144" fill="none" xmlns="http://www.w3.org/2000/svg">
<circle cx="4.5" cy="4.5" r="4.5" fill="#FAAC32"/>
<circle cx="4.5" cy="94.5" r="4.5" fill="#FAAC32"/>
<circle cx="4.5" cy="49.5" r="4.5" fill="#FAAC32"/>
<circle cx="4.5" cy="139.5" r="4.5" fill="#FAAC32"/>
<circle cx="139.5" cy="4.5" r="4.5" fill="#FAAC32"/>
<circle cx="139.5" cy="94.5" r="4.5" fill="#FAAC32"/>
<circle cx="139.5" cy="49.5" r="4.5" fill="#FAAC32"/>
<circle cx="139.5" cy="139.5" r="4.5" fill="#FAAC32"/>
<circle cx="274.5" cy="4.5" r="4.5" fill="#FAAC32"/>
<circle cx="274.5" cy="94.5" r="4.5" fill="#FAAC32"/>
<circle cx="274.5" cy="49.5" r="4.5" fill="#FAAC32"/>
<circle cx="274.5" cy="139.5" r="4.5" fill="#FAAC32"/>
<circle cx="49.5" cy="4.5" r="4.5" fill="#FAAC32"/>
<circle cx="49.5" cy="94.5" r="4.5" fill="#FAAC32"/>
<circle cx="49.5" cy="49.5" r="4.5" fill="#FAAC32"/>
<circle cx="49.5" cy="139.5" r="4.5" fill="#FAAC32"/>
<circle cx="184.5" cy="4.5" r="4.5" fill="#FAAC32"/>
<circle cx="184.5" cy="94.5" r="4.5" fill="#FAAC32"/>
<circle cx="184.5" cy="49.5" r="4.5" fill="#FAAC32"/>
<circle cx="184.5" cy="139.5" r="4.5" fill="#FAAC32"/>
<circle cx="319.5" cy="4.5" r="4.5" fill="#FAAC32"/>
<circle cx="319.5" cy="94.5" r="4.5" fill="#FAAC32"/>
<circle cx="319.5" cy="49.5" r="4.5" fill="#FAAC32"/>
<circle cx="319.5" cy="139.5" r="4.5" fill="#FAAC32"/>
<circle cx="94.5" cy="4.5" r="4.5" fill="#FAAC32"/>
<circle cx="94.5" cy="94.5" r="4.5" fill="#FAAC32"/>
<circle cx="94.5" cy="49.5" r="4.5" fill="#FAAC32"/>
<circle cx="94.5" cy="139.5" r="4.5" fill="#FAAC32"/>
<circle cx="229.5" cy="4.5" r="4.5" fill="#FAAC32"/>
<circle cx="229.5" cy="94.5" r="4.5" fill="#FAAC32"/>
<circle cx="229.5" cy="49.5" r="4.5" fill="#FAAC32"/>
<circle cx="229.5" cy="139.5" r="4.5" fill="#FAAC32"/>
<circle cx="364.5" cy="4.5" r="4.5" fill="#FAAC32"/>
<circle cx="364.5" cy="94.5" r="4.5" fill="#FAAC32"/>
<circle cx="364.5" cy="49.5" r="4.5" fill="#FAAC32"/>
<circle cx="364.5" cy="139.5" r="4.5" fill="#FAAC32"/>
</svg>
