<svg width="38" height="38" viewBox="0 0 38 38" fill="none" xmlns="http://www.w3.org/2000/svg">
<rect width="38" height="38" fill="#FAAC32"/>
<path d="M18.4 5V13.5217H14.2C11.887 13.5217 10 11.6074 10 9.26087C10 6.91435 11.887 5 14.2 5H18.4ZM18.4 14.7391V23.2609H14.2C11.887 23.2609 10 21.3465 10 19C10 16.6535 11.887 14.7391 14.2 14.7391H18.4ZM18.4 24.4783V28.7391C18.4 31.0857 16.513 33 14.2 33C11.887 33 10 31.0857 10 28.7391C10 26.3926 11.887 24.4783 14.2 24.4783H18.4ZM28 9.26087C28 11.6074 26.113 13.5217 23.8 13.5217H19.6V5H23.8C26.113 5 28 6.91435 28 9.26087ZM23.8 14.7391C22.6861 14.7391 21.6178 15.188 20.8302 15.9871C20.0425 16.7862 19.6 17.8699 19.6 19C19.6 20.1301 20.0425 21.2138 20.8302 22.0129C21.6178 22.812 22.6861 23.2609 23.8 23.2609C24.9139 23.2609 25.9822 22.812 26.7699 22.0129C27.5575 21.2138 28 20.1301 28 19C28 17.8699 27.5575 16.7862 26.7699 15.9871C25.9822 15.188 24.9139 14.7391 23.8 14.7391Z" fill="#060D19"/>
</svg>
