<svg width="170" height="42" viewBox="0 0 170 42" fill="none" xmlns="http://www.w3.org/2000/svg">
<rect y="32" width="50" height="10" fill="#FAFAFA"/>
<rect x="60" y="32" width="50" height="10" fill="#FAAC32"/>
<rect x="120" y="32" width="50" height="10" fill="#FAFAFA"/>
<path d="M114.3 25.45C112.933 25.45 111.767 25.2167 110.8 24.75C109.85 24.2667 109.075 23.6167 108.475 22.8C107.892 21.9833 107.467 21.0417 107.2 19.975C106.933 18.8917 106.8 17.75 106.8 16.55V15.2C106.8 13.5167 107.058 12 107.575 10.65C108.108 9.3 108.925 8.23333 110.025 7.45C111.142 6.65 112.567 6.25 114.3 6.25C116.033 6.25 117.45 6.65 118.55 7.45C119.65 8.23333 120.458 9.3 120.975 10.65C121.508 12 121.775 13.5167 121.775 15.2V16.55C121.775 17.75 121.642 18.8917 121.375 19.975C121.108 21.0417 120.675 21.9833 120.075 22.8C119.492 23.6167 118.725 24.2667 117.775 24.75C116.825 25.2167 115.667 25.45 114.3 25.45ZM114.3 23.25C116.033 23.25 117.3 22.6667 118.1 21.5C118.917 20.3167 119.325 18.45 119.325 15.9C119.325 13.2333 118.908 11.325 118.075 10.175C117.258 9.025 116 8.45 114.3 8.45C112.583 8.45 111.308 9.025 110.475 10.175C109.658 11.325 109.25 13.2167 109.25 15.85C109.25 18.4167 109.658 20.2917 110.475 21.475C111.292 22.6583 112.567 23.25 114.3 23.25ZM125.479 25V22C125.479 21.2667 125.579 20.6417 125.779 20.125C125.996 19.6083 126.362 19.1417 126.879 18.725C127.396 18.2917 128.096 17.875 128.979 17.475L132.404 15.9C133.237 15.5167 133.896 15.025 134.379 14.425C134.862 13.8083 135.104 13.0167 135.104 12.05C135.104 10.8833 134.779 9.975 134.129 9.325C133.479 8.675 132.562 8.35 131.379 8.35C130.212 8.35 129.296 8.675 128.629 9.325C127.962 9.975 127.629 10.8833 127.629 12.05H125.279C125.279 11 125.496 10.0333 125.929 9.15C126.379 8.26667 127.054 7.56667 127.954 7.05C128.854 6.51667 129.996 6.25 131.379 6.25C132.762 6.25 133.896 6.51667 134.779 7.05C135.679 7.56667 136.346 8.25 136.779 9.1C137.229 9.95 137.454 10.875 137.454 11.875V12.225C137.454 13.5417 137.071 14.65 136.304 15.55C135.554 16.45 134.537 17.1917 133.254 17.775L129.829 19.35C129.062 19.7 128.546 20.05 128.279 20.4C128.012 20.75 127.879 21.2167 127.879 21.8V24.1L127.229 22.95H137.679V25H125.479ZM139.483 26.08L143.155 10.96H144.775L141.103 26.08H139.483ZM151.917 25.324C150.933 25.324 150.093 25.156 149.397 24.82C148.713 24.472 148.155 24.004 147.723 23.416C147.303 22.828 146.997 22.15 146.805 21.382C146.613 20.602 146.517 19.78 146.517 18.916V17.944C146.517 16.732 146.703 15.64 147.075 14.668C147.459 13.696 148.047 12.928 148.839 12.364C149.643 11.788 150.669 11.5 151.917 11.5C153.165 11.5 154.185 11.788 154.977 12.364C155.769 12.928 156.351 13.696 156.723 14.668C157.107 15.64 157.299 16.732 157.299 17.944V18.916C157.299 19.78 157.203 20.602 157.011 21.382C156.819 22.15 156.507 22.828 156.075 23.416C155.655 24.004 155.103 24.472 154.419 24.82C153.735 25.156 152.901 25.324 151.917 25.324ZM151.917 23.74C153.165 23.74 154.077 23.32 154.653 22.48C155.241 21.628 155.535 20.284 155.535 18.448C155.535 16.528 155.235 15.154 154.635 14.326C154.047 13.498 153.141 13.084 151.917 13.084C150.681 13.084 149.763 13.498 149.163 14.326C148.575 15.154 148.281 16.516 148.281 18.412C148.281 20.26 148.575 21.61 149.163 22.462C149.751 23.314 150.669 23.74 151.917 23.74ZM163.98 25.324C162.996 25.324 162.162 25.132 161.478 24.748C160.794 24.364 160.272 23.854 159.912 23.218C159.564 22.582 159.39 21.892 159.39 21.148H161.082C161.082 21.964 161.34 22.612 161.856 23.092C162.384 23.572 163.092 23.812 163.98 23.812C164.568 23.812 165.078 23.704 165.51 23.488C165.942 23.272 166.278 22.966 166.518 22.57C166.758 22.162 166.878 21.688 166.878 21.148C166.878 20.332 166.614 19.672 166.086 19.168C165.57 18.664 164.874 18.412 163.998 18.412C163.626 18.412 163.302 18.46 163.026 18.556C162.762 18.64 162.528 18.748 162.324 18.88L161.46 17.332L166.482 13.66L166.302 13.336H159.912V11.86H167.922V14.254L163.764 17.278L162.504 17.332C162.708 17.26 162.93 17.2 163.17 17.152C163.422 17.104 163.716 17.08 164.052 17.08C165.012 17.08 165.828 17.26 166.5 17.62C167.172 17.98 167.682 18.46 168.03 19.06C168.39 19.66 168.57 20.314 168.57 21.022V21.274C168.57 21.97 168.39 22.63 168.03 23.254C167.682 23.866 167.166 24.364 166.482 24.748C165.81 25.132 164.976 25.324 163.98 25.324Z" fill="white"/>
</svg>
