<svg width="170" height="42" viewBox="0 0 170 42" fill="none" xmlns="http://www.w3.org/2000/svg">
<rect y="32" width="50" height="10" fill="#FAFAFA"/>
<rect x="60" y="32" width="50" height="10" fill="#FAFAFA"/>
<rect x="120" y="32" width="50" height="10" fill="#FAAC32"/>
<path d="M114.3 25.45C112.933 25.45 111.767 25.2167 110.8 24.75C109.85 24.2667 109.075 23.6167 108.475 22.8C107.892 21.9833 107.467 21.0417 107.2 19.975C106.933 18.8917 106.8 17.75 106.8 16.55V15.2C106.8 13.5167 107.058 12 107.575 10.65C108.108 9.3 108.925 8.23333 110.025 7.45C111.142 6.65 112.567 6.25 114.3 6.25C116.033 6.25 117.45 6.65 118.55 7.45C119.65 8.23333 120.458 9.3 120.975 10.65C121.508 12 121.775 13.5167 121.775 15.2V16.55C121.775 17.75 121.642 18.8917 121.375 19.975C121.108 21.0417 120.675 21.9833 120.075 22.8C119.492 23.6167 118.725 24.2667 117.775 24.75C116.825 25.2167 115.667 25.45 114.3 25.45ZM114.3 23.25C116.033 23.25 117.3 22.6667 118.1 21.5C118.917 20.3167 119.325 18.45 119.325 15.9C119.325 13.2333 118.908 11.325 118.075 10.175C117.258 9.025 116 8.45 114.3 8.45C112.583 8.45 111.308 9.025 110.475 10.175C109.658 11.325 109.25 13.2167 109.25 15.85C109.25 18.4167 109.658 20.2917 110.475 21.475C111.292 22.6583 112.567 23.25 114.3 23.25ZM131.054 25.45C129.687 25.45 128.529 25.1833 127.579 24.65C126.629 24.1167 125.904 23.4083 125.404 22.525C124.921 21.6417 124.679 20.6833 124.679 19.65H127.029C127.029 20.7833 127.387 21.6833 128.104 22.35C128.837 23.0167 129.821 23.35 131.054 23.35C131.871 23.35 132.579 23.2 133.179 22.9C133.779 22.6 134.246 22.175 134.579 21.625C134.912 21.0583 135.079 20.4 135.079 19.65C135.079 18.5167 134.712 17.6 133.979 16.9C133.262 16.2 132.296 15.85 131.079 15.85C130.562 15.85 130.112 15.9167 129.729 16.05C129.362 16.1667 129.037 16.3167 128.754 16.5L127.554 14.35L134.529 9.25L134.279 8.8H125.404V6.75H136.529V10.075L130.754 14.275L129.004 14.35C129.287 14.25 129.596 14.1667 129.929 14.1C130.279 14.0333 130.687 14 131.154 14C132.487 14 133.621 14.25 134.554 14.75C135.487 15.25 136.196 15.9167 136.679 16.75C137.179 17.5833 137.429 18.4917 137.429 19.475V19.825C137.429 20.7917 137.179 21.7083 136.679 22.575C136.196 23.425 135.479 24.1167 134.529 24.65C133.596 25.1833 132.437 25.45 131.054 25.45ZM139.386 26.08L143.058 10.96H144.678L141.006 26.08H139.386ZM151.819 25.324C150.835 25.324 149.995 25.156 149.299 24.82C148.615 24.472 148.057 24.004 147.625 23.416C147.205 22.828 146.899 22.15 146.707 21.382C146.515 20.602 146.419 19.78 146.419 18.916V17.944C146.419 16.732 146.605 15.64 146.977 14.668C147.361 13.696 147.949 12.928 148.741 12.364C149.545 11.788 150.571 11.5 151.819 11.5C153.067 11.5 154.087 11.788 154.879 12.364C155.671 12.928 156.253 13.696 156.625 14.668C157.009 15.64 157.201 16.732 157.201 17.944V18.916C157.201 19.78 157.105 20.602 156.913 21.382C156.721 22.15 156.409 22.828 155.977 23.416C155.557 24.004 155.005 24.472 154.321 24.82C153.637 25.156 152.803 25.324 151.819 25.324ZM151.819 23.74C153.067 23.74 153.979 23.32 154.555 22.48C155.143 21.628 155.437 20.284 155.437 18.448C155.437 16.528 155.137 15.154 154.537 14.326C153.949 13.498 153.043 13.084 151.819 13.084C150.583 13.084 149.665 13.498 149.065 14.326C148.477 15.154 148.183 16.516 148.183 18.412C148.183 20.26 148.477 21.61 149.065 22.462C149.653 23.314 150.571 23.74 151.819 23.74ZM163.882 25.324C162.898 25.324 162.064 25.132 161.38 24.748C160.696 24.364 160.174 23.854 159.814 23.218C159.466 22.582 159.292 21.892 159.292 21.148H160.984C160.984 21.964 161.242 22.612 161.758 23.092C162.286 23.572 162.994 23.812 163.882 23.812C164.47 23.812 164.98 23.704 165.412 23.488C165.844 23.272 166.18 22.966 166.42 22.57C166.66 22.162 166.78 21.688 166.78 21.148C166.78 20.332 166.516 19.672 165.988 19.168C165.472 18.664 164.776 18.412 163.9 18.412C163.528 18.412 163.204 18.46 162.928 18.556C162.664 18.64 162.43 18.748 162.226 18.88L161.362 17.332L166.384 13.66L166.204 13.336H159.814V11.86H167.824V14.254L163.666 17.278L162.406 17.332C162.61 17.26 162.832 17.2 163.072 17.152C163.324 17.104 163.618 17.08 163.954 17.08C164.914 17.08 165.73 17.26 166.402 17.62C167.074 17.98 167.584 18.46 167.932 19.06C168.292 19.66 168.472 20.314 168.472 21.022V21.274C168.472 21.97 168.292 22.63 167.932 23.254C167.584 23.866 167.068 24.364 166.384 24.748C165.712 25.132 164.878 25.324 163.882 25.324Z" fill="white"/>
</svg>
