<svg width="170" height="42" viewBox="0 0 170 42" fill="none" xmlns="http://www.w3.org/2000/svg">
<rect y="32.0005" width="50" height="10" fill="#FAAC32"/>
<rect x="60" y="32.0005" width="50" height="10" fill="#FAFAFA"/>
<rect x="120" y="32.0005" width="50" height="10" fill="#FAFAFA"/>
<path d="M119.3 25.45C117.933 25.45 116.767 25.2167 115.8 24.75C114.85 24.2667 114.075 23.6167 113.475 22.8C112.892 21.9833 112.467 21.0417 112.2 19.975C111.933 18.8917 111.8 17.75 111.8 16.55V15.2C111.8 13.5167 112.058 12 112.575 10.65C113.108 9.3 113.925 8.23333 115.025 7.45C116.142 6.65 117.567 6.25 119.3 6.25C121.033 6.25 122.45 6.65 123.55 7.45C124.65 8.23333 125.458 9.3 125.975 10.65C126.508 12 126.775 13.5167 126.775 15.2V16.55C126.775 17.75 126.642 18.8917 126.375 19.975C126.108 21.0417 125.675 21.9833 125.075 22.8C124.492 23.6167 123.725 24.2667 122.775 24.75C121.825 25.2167 120.667 25.45 119.3 25.45ZM119.3 23.25C121.033 23.25 122.3 22.6667 123.1 21.5C123.917 20.3167 124.325 18.45 124.325 15.9C124.325 13.2333 123.908 11.325 123.075 10.175C122.258 9.025 121 8.45 119.3 8.45C117.583 8.45 116.308 9.025 115.475 10.175C114.658 11.325 114.25 13.2167 114.25 15.85C114.25 18.4167 114.658 20.2917 115.475 21.475C116.292 22.6583 117.567 23.25 119.3 23.25ZM133.679 25V7.95L134.779 8.8H129.629V6.75L136.079 6.75V25H133.679ZM139.527 26.08L143.199 10.96H144.819L141.147 26.08H139.527ZM151.961 25.324C150.977 25.324 150.137 25.156 149.441 24.82C148.757 24.472 148.199 24.004 147.767 23.416C147.347 22.828 147.041 22.15 146.849 21.382C146.657 20.602 146.561 19.78 146.561 18.916V17.944C146.561 16.732 146.747 15.64 147.119 14.668C147.503 13.696 148.091 12.928 148.883 12.364C149.687 11.788 150.713 11.5 151.961 11.5C153.209 11.5 154.229 11.788 155.021 12.364C155.813 12.928 156.395 13.696 156.767 14.668C157.151 15.64 157.343 16.732 157.343 17.944V18.916C157.343 19.78 157.247 20.602 157.055 21.382C156.863 22.15 156.551 22.828 156.119 23.416C155.699 24.004 155.147 24.472 154.463 24.82C153.779 25.156 152.945 25.324 151.961 25.324ZM151.961 23.74C153.209 23.74 154.121 23.32 154.697 22.48C155.285 21.628 155.579 20.284 155.579 18.448C155.579 16.528 155.279 15.154 154.679 14.326C154.091 13.498 153.185 13.084 151.961 13.084C150.725 13.084 149.807 13.498 149.207 14.326C148.619 15.154 148.325 16.516 148.325 18.412C148.325 20.26 148.619 21.61 149.207 22.462C149.795 23.314 150.713 23.74 151.961 23.74ZM164.024 25.324C163.04 25.324 162.206 25.132 161.522 24.748C160.838 24.364 160.316 23.854 159.956 23.218C159.608 22.582 159.434 21.892 159.434 21.148H161.126C161.126 21.964 161.384 22.612 161.9 23.092C162.428 23.572 163.136 23.812 164.024 23.812C164.612 23.812 165.122 23.704 165.554 23.488C165.986 23.272 166.322 22.966 166.562 22.57C166.802 22.162 166.922 21.688 166.922 21.148C166.922 20.332 166.658 19.672 166.13 19.168C165.614 18.664 164.918 18.412 164.042 18.412C163.67 18.412 163.346 18.46 163.07 18.556C162.806 18.64 162.572 18.748 162.368 18.88L161.504 17.332L166.526 13.66L166.346 13.336H159.956V11.86H167.966V14.254L163.808 17.278L162.548 17.332C162.752 17.26 162.974 17.2 163.214 17.152C163.466 17.104 163.76 17.08 164.096 17.08C165.056 17.08 165.872 17.26 166.544 17.62C167.216 17.98 167.726 18.46 168.074 19.06C168.434 19.66 168.614 20.314 168.614 21.022V21.274C168.614 21.97 168.434 22.63 168.074 23.254C167.726 23.866 167.21 24.364 166.526 24.748C165.854 25.132 165.02 25.324 164.024 25.324Z" fill="white"/>
</svg>
