<svg width="77" height="46" viewBox="0 0 77 46" fill="none" xmlns="http://www.w3.org/2000/svg">
<path d="M51 26V0H77V26H51Z" fill="#FAAC32"/>
<path d="M67.9997 19.4618C68.4995 20.2736 69.0426 21.0514 70.1931 21.0514C71.1594 21.0514 71.6664 20.5712 71.6664 19.9067C71.6664 19.1116 71.1421 18.8292 70.079 18.3662L69.4962 18.1178C67.8141 17.4042 66.6954 16.5101 66.6954 14.6215C66.6954 12.8809 68.0279 11.5564 70.11 11.5564C71.5928 11.5564 72.658 12.0699 73.4265 13.4147L71.6108 14.5753C71.2114 13.8617 70.7795 13.5808 70.11 13.5808C69.4268 13.5808 68.9942 14.0119 68.9942 14.5753C68.9942 15.2715 69.4275 15.5532 70.4278 15.9843L71.0107 16.2328C72.9932 17.0771 74.1112 17.9394 74.1112 19.8778C74.1112 21.9665 72.4616 23.1112 70.2473 23.1112C68.0813 23.1112 66.8514 22.0243 66.1667 20.6788L67.9997 19.4618ZM59.632 19.5211C59.9975 20.1754 60.5529 20.6788 61.3517 20.6788C62.1158 20.6788 62.5556 20.3769 62.5556 19.2033V11.5557H64.9628V19.5731C64.9628 22.0048 63.5523 23.1112 61.4925 23.1112C59.6313 23.1112 58.288 21.8502 57.7405 20.6788L59.632 19.5211Z" fill="#060D19"/>
<g filter="url(#filter0_d_41_94)">
<rect x="33.2647" y="3.41211" width="21.3235" height="23.8824" fill="#060D19"/>
<path fill-rule="evenodd" clip-rule="evenodd" d="M58 0L55.4412 29L43.5 32.4118L31.5588 29L29 0L58 0ZM36.5065 18.7647H39.9183L40.0016 20.8971L43.5 22.0898L46.9984 20.8971L47.2516 17.0588H39.7484L39.5751 13.6471H47.4249L47.6781 10.2353H35.9102L35.6536 6.82353L51.2631 6.82353L50.8366 13.6471L50.2369 23.4559L43.5 25.6749L36.7631 23.4559L36.5065 18.7647Z" fill="#FAAC32"/>
</g>
<g filter="url(#filter1_d_41_94)">
<rect x="9" y="6" width="23" height="25" fill="#060D19"/>
<path d="M4 0L7 34L21 38L35 34C36 22.67 37 11.33 38 0L4 0ZM28.76 28L20.99 30L13.23 28L12.84 23H16.7L16.88 25L21 25.62L25.17 25L25.58 20H12.59L13.55 8H29L29.7 14H26L25.77 12H17.41L17.09 16H29.75L28.76 28Z" fill="#FAAC32"/>
</g>
<defs>
<filter id="filter0_d_41_94" x="25" y="0" width="37" height="40.4121" filterUnits="userSpaceOnUse" color-interpolation-filters="sRGB">
<feFlood flood-opacity="0" result="BackgroundImageFix"/>
<feColorMatrix in="SourceAlpha" type="matrix" values="0 0 0 0 0 0 0 0 0 0 0 0 0 0 0 0 0 0 127 0" result="hardAlpha"/>
<feOffset dy="4"/>
<feGaussianBlur stdDeviation="2"/>
<feComposite in2="hardAlpha" operator="out"/>
<feColorMatrix type="matrix" values="0 0 0 0 0 0 0 0 0 0 0 0 0 0 0 0 0 0 0.25 0"/>
<feBlend mode="normal" in2="BackgroundImageFix" result="effect1_dropShadow_41_94"/>
<feBlend mode="normal" in="SourceGraphic" in2="effect1_dropShadow_41_94" result="shape"/>
</filter>
<filter id="filter1_d_41_94" x="0" y="0" width="42" height="46" filterUnits="userSpaceOnUse" color-interpolation-filters="sRGB">
<feFlood flood-opacity="0" result="BackgroundImageFix"/>
<feColorMatrix in="SourceAlpha" type="matrix" values="0 0 0 0 0 0 0 0 0 0 0 0 0 0 0 0 0 0 127 0" result="hardAlpha"/>
<feOffset dy="4"/>
<feGaussianBlur stdDeviation="2"/>
<feComposite in2="hardAlpha" operator="out"/>
<feColorMatrix type="matrix" values="0 0 0 0 0 0 0 0 0 0 0 0 0 0 0 0 0 0 0.25 0"/>
<feBlend mode="normal" in2="BackgroundImageFix" result="effect1_dropShadow_41_94"/>
<feBlend mode="normal" in="SourceGraphic" in2="effect1_dropShadow_41_94" result="shape"/>
</filter>
</defs>
</svg>
