<svg width="91" height="809" viewBox="0 0 91 809" fill="none" xmlns="http://www.w3.org/2000/svg">
<path d="M2 372.542H0.5V373.187L0.969056 373.631L2 372.542ZM43.5686 411.874L44.5996 410.784L44.5996 410.784L43.5686 411.874ZM82 448.237H83.5V447.592L83.0309 447.148L82 448.237ZM82 808.66L90.6603 800L82 791.34L73.3397 800L82 808.66ZM0.5 0V372.542H3.5V0H0.5ZM0.969056 373.631L42.5377 412.963L44.5996 410.784L3.03094 371.452L0.969056 373.631ZM42.5377 412.963L80.9691 449.327L83.0309 447.148L44.5996 410.784L42.5377 412.963ZM80.5 448.237V800H83.5V448.237H80.5Z" fill="#FAAC32"/>
<circle cx="67.5" cy="466.5" r="4.5" fill="#FAFAFA"/>
<circle cx="67.5" cy="485.5" r="4.5" fill="#FAFAFA"/>
<circle cx="67.5" cy="504.5" r="4.5" fill="#FAFAFA"/>
<path d="M42.6429 17L12 58.875H28.6892L20.3571 84L51 44.9167H32.0766L42.6429 17Z" fill="#FAFAFA"/>
</svg>
