<svg width="91" height="809" viewBox="0 0 91 809" fill="none" xmlns="http://www.w3.org/2000/svg">
<path d="M40.034 68V53.218C40.034 41.81 47.496 34.078 58 32L59.99 36.302C55.126 38.136 52 43.578 52 48H60V68H40.034ZM12 68V53.218C12 41.81 19.496 34.078 30 32L31.992 36.302C27.126 38.136 24 43.578 24 48H31.966V68H12Z" fill="#FAFAFA"/>
<path d="M2 372.542H0.5V373.187L0.969056 373.631L2 372.542ZM43.5686 411.874L44.5996 410.784L44.5996 410.784L43.5686 411.874ZM82 448.237H83.5V447.592L83.0309 447.148L82 448.237ZM82 808.66L90.6603 800L82 791.34L73.3397 800L82 808.66ZM0.5 0V372.542H3.5V0H0.5ZM0.969056 373.631L42.5377 412.963L44.5996 410.784L3.03094 371.452L0.969056 373.631ZM42.5377 412.963L80.9691 449.327L83.0309 447.148L44.5996 410.784L42.5377 412.963ZM80.5 448.237V800H83.5V448.237H80.5Z" fill="#FAAC32"/>
<circle cx="67.5" cy="466.5" r="4.5" fill="#FAFAFA"/>
<circle cx="67.5" cy="485.5" r="4.5" fill="#FAFAFA"/>
<circle cx="67.5" cy="504.5" r="4.5" fill="#FAFAFA"/>
</svg>
