<svg width="87" height="806" viewBox="0 0 87 806" fill="none" xmlns="http://www.w3.org/2000/svg">
<path d="M1 372.542H0V372.972L0.312704 373.268L1 372.542ZM42.5686 411.874L43.2559 411.147L43.2559 411.147L42.5686 411.874ZM81 448.237H82V447.807L81.6873 447.511L81 448.237ZM81 805.774L86.7735 800L81 794.226L75.2265 800L81 805.774ZM0 0V372.542H2V0H0ZM0.312704 373.268L41.8813 412.6L43.2559 411.147L1.6873 371.815L0.312704 373.268ZM41.8813 412.6L80.3127 448.964L81.6873 447.511L43.2559 411.147L41.8813 412.6ZM80 448.237V800H82V448.237H80Z" fill="#FAAC32"/>
<circle cx="66.5" cy="466.5" r="4.5" fill="#FAFAFA"/>
<circle cx="66.5" cy="485.5" r="4.5" fill="#FAFAFA"/>
<circle cx="66.5" cy="504.5" r="4.5" fill="#FAFAFA"/>
<path d="M41.6429 17L11 58.875H27.6892L19.3571 84L50 44.9167H31.0766L41.6429 17Z" fill="#FAFAFA"/>
</svg>
