<svg width="207" height="359" viewBox="0 0 207 359" fill="none" xmlns="http://www.w3.org/2000/svg">
<path d="M205.625 57.375C205.75 121.375 167 161.25 104.625 161.25C42.7501 161.25 4.12506 121.375 4.12506 57.375L4.12506 -8.80786e-06L205.625 0L205.625 57.375ZM35.6251 57.625C35.6251 101.625 62.2501 129.25 104.75 129.25C147.5 129.25 174.25 101.5 174.25 57.25L174.25 31.5L35.6251 31.5L35.6251 57.625Z" fill="#32A2FB"/>
<path d="M205.625 255.375L205.625 289.25L4.83916e-05 289.25L5.25497e-05 194.125L162.125 114.125L205.625 57.375L205.625 135.125L69.2501 195.125L205.625 255.375Z" fill="#32A2FB"/>
<rect x="206.125" y="296.625" width="29" height="206" transform="rotate(90 206.125 296.625)" fill="#32A2FB"/>
<rect x="206.125" y="329.625" width="29" height="206" transform="rotate(90 206.125 329.625)" fill="#32A2FB"/>
</svg>
