<svg width="359" height="323" viewBox="0 0 359 323" fill="none" xmlns="http://www.w3.org/2000/svg">
<path d="M47.104 250.024V226.984H93.696C104.96 226.984 114.944 225.192 123.648 221.608C132.523 217.853 140.032 212.733 146.176 206.248C152.491 199.763 157.269 192.168 160.512 183.464C163.755 174.76 165.376 165.373 165.376 155.304C165.376 144.723 163.755 135.165 160.512 126.632C157.269 117.928 152.491 110.419 146.176 104.104C140.032 97.6187 132.523 92.6693 123.648 89.256C114.944 85.8427 104.96 84.136 93.696 84.136H47.104V61.096H91.136C108.032 61.096 122.709 63.7413 135.168 69.032C147.627 74.152 157.952 81.1493 166.144 90.024C174.507 98.728 180.736 108.541 184.832 119.464C188.928 130.216 190.976 141.224 190.976 152.488V158.12C190.976 169.043 188.928 179.965 184.832 190.888C180.736 201.811 174.507 211.709 166.144 220.584C157.952 229.459 147.627 236.627 135.168 242.088C122.709 247.379 108.032 250.024 91.136 250.024H47.104ZM27.136 250.024V61.096H52.224V250.024H27.136ZM222.26 249L157.492 62.12H183.348L241.46 232.616L229.172 226.472H259.892L246.836 232.616L300.34 62.12H325.428L265.268 249H222.26Z" fill="#FAAC32"/>
<rect x="27" y="268" width="306" height="15" fill="#FAAC32"/>
<rect x="263.28" y="313.164" width="263.062" height="15" transform="rotate(-71.9837 263.28 313.164)" fill="#FAAC32"/>
</svg>
