<svg width="38" height="38" viewBox="0 0 38 38" fill="none" xmlns="http://www.w3.org/2000/svg">
<rect width="38" height="38" fill="#FAAC32"/>
<path d="M22.0404 22.6312C22.7731 23.8254 23.5693 24.9697 25.256 24.9697C26.6727 24.9697 27.4159 24.2632 27.4159 23.2857C27.4159 22.1159 26.6472 21.7004 25.0887 21.0194L24.2342 20.6539C21.7683 19.6041 20.1282 18.2888 20.1282 15.5103C20.1282 12.9497 22.0817 11.0011 25.1342 11.0011C27.3079 11.0011 28.8697 11.7565 29.9962 13.7349L27.3344 15.4423C26.7489 14.3926 26.1157 13.9793 25.1342 13.9793C24.1326 13.9793 23.4983 14.6136 23.4983 15.4423C23.4983 16.4666 24.1336 16.8809 25.6001 17.5152L26.4545 17.8807C29.361 19.1228 31 20.3914 31 23.2432C31 26.3159 28.5817 28 25.3354 28C22.16 28 20.3569 26.4009 19.3531 24.4215L22.0404 22.6312ZM9.77302 22.7183C10.3088 23.6809 11.123 24.4215 12.294 24.4215C13.4143 24.4215 14.0591 23.9774 14.0591 22.2508V11H17.5881V22.7948C17.5881 26.3723 15.5202 28 12.5005 28C9.77196 28 7.80258 26.1449 7 24.4215L9.77302 22.7183Z" fill="#060D19"/>
</svg>
